<svg id="Layer_1" data-name="Layer 1" xmlns="http://www.w3.org/2000/svg" viewBox="0 0 2000 1000"><defs><style>.cls-1{fill:#28409c;}.cls-2{fill:#2667c6;}.cls-3{fill:#3d8be8;}</style></defs><title>Logo</title><path class="cls-1" d="M347.031,573.84a27.308,27.308,0,1,0,32.691,4.176H481.947a27.3,27.3,0,1,0,31.01-5.073l2.69-11.837a11.7,11.7,0,0,0-11.411-14.3H379.487c-11.949,6.9-23.282,13.63-33.881,20.065Z"/><path class="cls-1" d="M513.1,531.207a11.7,11.7,0,0,0,11.412-9.109l12.368-54.419c-45.954,19.3-90.369,41.743-129.782,63.528Z"/><path class="cls-1" d="M610.9,466.267a14.17,14.17,0,0,1-14.17,14.17h-29.3a14.17,14.17,0,0,0-14.17,14.17V505.7a14.17,14.17,0,0,0,14.17,14.17h29.3a14.17,14.17,0,0,1,14.17,14.17v29a14.17,14.17,0,0,0,14.17,14.17h10.486a14.17,14.17,0,0,0,14.17-14.17v-29a14.17,14.17,0,0,1,14.17-14.17h29.6a14.17,14.17,0,0,0,14.17-14.17V494.607a14.17,14.17,0,0,0-14.17-14.17H663.9a14.17,14.17,0,0,1-14.17-14.17v-29.3a14.094,14.094,0,0,0-2.1-7.425q-18.267,4.7-36.725,10.613Z"/><path class="cls-2" d="M635.558,422.8H625.072a14.17,14.17,0,0,0-14.17,14.17v3.188q18.428-5.883,36.725-10.613A14.157,14.157,0,0,0,635.558,422.8Z"/><path class="cls-2" d="M345.606,566.875c10.6-6.435,21.932-13.166,33.881-20.065h-6.133l-3.191-15.6H407.1c39.413-21.785,83.828-44.229,129.782-63.528l10.682-47a11.7,11.7,0,0,0-11.411-14.3H449.429a1076.149,1076.149,0,0,0-123.364,64.961Z"/><path class="cls-3" d="M340.161,384.531a11.7,11.7,0,0,0-11.465-9.357H278.7a11.7,11.7,0,0,0-11.7,11.7v7.8a11.7,11.7,0,0,0,11.7,11.7h34.076l13.287,64.961A1076.149,1076.149,0,0,1,449.429,406.38H344.63Z"/><path class="cls-2" d="M751.987,403.237h19.727q19.432,0,31.738,8.44T815.757,433q0,15.711-18.165,26.247,28.125,9.381,28.125,32.542,0,16.128-14.5,26T772.4,527.651h-20.41Zm16.8,15.039v36.817q14.063-.195,21.533-5.371a16.422,16.422,0,0,0,7.471-14.258,14.73,14.73,0,0,0-6.739-12.647q-6.738-4.736-18.066-4.736A38.78,38.78,0,0,0,768.784,418.276Zm0,51.563v42.577h1.367q21.972,0,29.981-7.031t8.007-14.355q0-9.669-8.984-15.43t-24.609-5.761Z"/><path class="cls-2" d="M923.154,490.639H854.4q2.245,12.4,10.205,18.115a29.105,29.105,0,0,0,17.334,5.713q14.452,0,24.219-12.012l12.4,9.375Q904.6,529.9,881.162,529.9q-17.97,0-30.078-12.305t-12.11-30.566a41.009,41.009,0,0,1,12.256-29.638,40.245,40.245,0,0,1,29.932-12.549q17.382,0,29.785,12.744T923.154,490.639Zm-66.992-13.574h49.219q-8.2-16.6-24.219-16.6Q863.68,460.464,856.162,477.065Z"/><path class="cls-2" d="M942.954,423.647h16.992v23.438h16.8v15.527h-16.8v65.039H942.954V462.612H929.575V446.889h13.379Z"/><path class="cls-2" d="M997.153,423.647h16.992v23.438h16.8v15.527h-16.8v65.039H997.153V462.612H983.774V446.889h13.379Z"/><path class="cls-2" d="M1126.352,490.639H1057.6q2.245,12.4,10.2,18.115a29.105,29.105,0,0,0,17.334,5.713q14.452,0,24.219-12.012l12.4,9.375Q1107.8,529.9,1084.36,529.9q-17.968,0-30.078-12.305t-12.109-30.566a41.008,41.008,0,0,1,12.255-29.638,40.245,40.245,0,0,1,29.932-12.549q17.382,0,29.785,12.744T1126.352,490.639Zm-66.992-13.574h49.219q-8.2-16.6-24.219-16.6Q1066.879,460.464,1059.36,477.065Z"/><path class="cls-2" d="M1159.63,447.085v16.6q5.662-9.96,11.084-14.4t14.111-4.443a30.886,30.886,0,0,1,7.031,1.172L1186.68,463a42.5,42.5,0,0,0-6.445-.977,19.235,19.235,0,0,0-14.4,6.006,20.7,20.7,0,0,0-5.811,14.99v44.629h-16.992V447.085Z"/><path class="cls-1" d="M1279.722,417.1l-13.769,11.035a55.182,55.182,0,0,0-9.891-8.447q-4.434-2.783-12.811-2.783-9.16,0-14.861,4.138a12.643,12.643,0,0,0-5.7,10.661q0,5.649,4.978,9.981t16.965,9.484a121.035,121.035,0,0,1,18.668,9.59,47.624,47.624,0,0,1,10.967,9.807,38.658,38.658,0,0,1,6.384,11.319,37.633,37.633,0,0,1,2.1,12.588,35.466,35.466,0,0,1-11.28,26.445,37.792,37.792,0,0,1-27.3,10.928,46.242,46.242,0,0,1-27.587-8.545q-11.964-8.542-18.409-25.635l16.993-4.785q9.276,21,28.418,21,9.276,0,15.429-5.549a18.065,18.065,0,0,0,6.153-14.019,18.978,18.978,0,0,0-3.226-10.176,28.757,28.757,0,0,0-8.016-8.42q-4.79-3.31-15.239-7.6a107.915,107.915,0,0,1-16.084-7.847,41.46,41.46,0,0,1-9.752-8.49,35.906,35.906,0,0,1-6.027-9.807,28.378,28.378,0,0,1-1.91-10.442q0-13.368,10.742-22.785t26.074-9.418a52.891,52.891,0,0,1,20.606,4.394A42.351,42.351,0,0,1,1279.722,417.1Z"/><path class="cls-1" d="M1293.174,400.893h16.993v59.375q7.031-8.1,13.134-11.767t14.893-3.662a23.646,23.646,0,0,1,17.725,7.861,26.339,26.339,0,0,1,7.47,18.8v56.152H1346.4V476.284q0-7.617-3.857-12.207a12.673,12.673,0,0,0-10.2-4.59,20.7,20.7,0,0,0-15.674,6.934,23.68,23.68,0,0,0-6.494,16.8v44.434h-16.993Z"/><path class="cls-1" d="M1374.791,487.026q0-16.5,13.037-29.346t29.931-12.841q17.382,0,30.372,12.646t12.988,29.541q0,16.992-12.744,29.931t-29.444,12.94a42.963,42.963,0,0,1-31.006-12.793Q1374.791,504.312,1374.791,487.026Zm69.922.049a24.088,24.088,0,0,0-7.813-17.856,25.734,25.734,0,0,0-18.555-7.583,26.4,26.4,0,0,0-18.994,7.681,24.611,24.611,0,0,0-7.959,18.343q0,10.179,8.057,17.809a26.59,26.59,0,0,0,18.9,7.631,25.423,25.423,0,0,0,18.457-7.826Q1444.713,497.446,1444.713,487.075Z"/><path class="cls-1" d="M1493.223,447.085V463.3q12.19-18.458,31.206-18.457,15.6,0,26.867,12.451a42.816,42.816,0,0,1,11.263,29.736,43.619,43.619,0,0,1-11.41,30.175q-11.409,12.7-26.915,12.7a34.328,34.328,0,0,1-17.212-4.688,37.488,37.488,0,0,1-13.6-13.574v53.809h-16.993V447.085Zm51.563,39.941a25.442,25.442,0,0,0-7.994-18.6,25.8,25.8,0,0,0-18.813-7.959,26.259,26.259,0,0,0-19.058,7.91,25.308,25.308,0,0,0-8.041,18.652,26.431,26.431,0,0,0,7.943,19.14,25.406,25.406,0,0,0,18.766,8.106,27.318,27.318,0,0,0,27.2-27.246Z"/><path class="cls-1" d="M1593.575,447.085V463.3q12.19-18.458,31.206-18.457,15.6,0,26.866,12.451a42.812,42.812,0,0,1,11.264,29.736A43.623,43.623,0,0,1,1651.5,517.2q-11.41,12.7-26.915,12.7a34.325,34.325,0,0,1-17.212-4.688,37.491,37.491,0,0,1-13.6-13.574v53.809h-16.992V447.085Zm51.562,39.941a25.442,25.442,0,0,0-7.994-18.6,25.793,25.793,0,0,0-18.812-7.959,26.262,26.262,0,0,0-19.059,7.91,25.312,25.312,0,0,0-8.041,18.652,26.435,26.435,0,0,0,7.943,19.14,25.406,25.406,0,0,0,18.766,8.106,27.318,27.318,0,0,0,27.2-27.246Z"/><path class="cls-1" d="M1755.255,490.639h-68.75q2.245,12.4,10.2,18.115a29.1,29.1,0,0,0,17.334,5.713q14.451,0,24.218-12.012l12.4,9.375q-13.966,18.068-37.4,18.067-17.969,0-30.078-12.305t-12.109-30.566a41.009,41.009,0,0,1,12.256-29.638,40.242,40.242,0,0,1,29.931-12.549q17.382,0,29.786,12.744T1755.255,490.639Zm-66.993-13.574h49.219q-8.2-16.6-24.219-16.6Q1695.781,460.464,1688.262,477.065Z"/><path class="cls-1" d="M1788.532,447.085v16.6q5.663-9.96,11.084-14.4t14.111-4.443a30.886,30.886,0,0,1,7.031,1.172L1815.583,463a42.507,42.507,0,0,0-6.446-.977,19.235,19.235,0,0,0-14.4,6.006,20.7,20.7,0,0,0-5.81,14.99v44.629H1771.93V447.085Z"/><path class="cls-2" d="M785.994,587.3a12.6,12.6,0,0,1-4.922,10.582q-4.921,3.8-13.359,3.8-9.141,0-14.062-2.355v-5.766a36.942,36.942,0,0,0,6.89,2.109,36.231,36.231,0,0,0,7.383.774q5.976,0,9-2.268a7.439,7.439,0,0,0,3.023-6.31,8.1,8.1,0,0,0-1.072-4.377,9.96,9.96,0,0,0-3.586-3.147,50.188,50.188,0,0,0-7.646-3.269q-7.173-2.566-10.248-6.082a13.428,13.428,0,0,1-3.076-9.176,11.413,11.413,0,0,1,4.464-9.457q4.465-3.516,11.813-3.516a34.819,34.819,0,0,1,14.1,2.813l-1.864,5.2a31.863,31.863,0,0,0-12.375-2.672q-4.746,0-7.418,2.039a6.72,6.72,0,0,0-2.672,5.66,8.674,8.674,0,0,0,.985,4.377,9.257,9.257,0,0,0,3.322,3.129,41.341,41.341,0,0,0,7.154,3.147q8.086,2.882,11.127,6.187A12.167,12.167,0,0,1,785.994,587.3Z"/><path class="cls-2" d="M818.4,600.98V576.054q0-4.71-2.145-7.031t-6.715-2.32q-6.081,0-8.877,3.3t-2.795,10.828V600.98h-5.835v-54.7h5.835v16.558a36.017,36.017,0,0,1-.281,4.958h.352a11.894,11.894,0,0,1,4.9-4.377,15.936,15.936,0,0,1,7.26-1.6q7.067,0,10.6,3.357t3.534,10.67V600.98Z"/><path class="cls-2" d="M865.876,581.679q0,9.422-4.746,14.713t-13.113,5.291a17.36,17.36,0,0,1-9.176-2.426,16.012,16.012,0,0,1-6.188-6.961,24.258,24.258,0,0,1-2.179-10.617q0-9.421,4.711-14.677t13.078-5.256q8.085,0,12.849,5.379T865.876,581.679Zm-29.355,0q0,7.383,2.953,11.25t8.683,3.867q5.731,0,8.7-3.849t2.97-11.268q0-7.347-2.97-11.162t-8.772-3.814q-5.73,0-8.648,3.761T836.521,581.679Z"/><path class="cls-2" d="M890.437,601.683a16.67,16.67,0,0,1-6.873-1.389,12.911,12.911,0,0,1-5.221-4.271h-.422a51.733,51.733,0,0,1,.422,6.4v15.856h-5.836V562.449h4.746l.809,5.273h.281a13.552,13.552,0,0,1,5.238-4.57,15.919,15.919,0,0,1,6.856-1.406q7.663,0,11.83,5.238t4.166,14.695q0,9.492-4.237,14.748T890.437,601.683Zm-.844-34.98q-5.907,0-8.543,3.269t-2.707,10.406v1.3q0,8.121,2.707,11.619t8.684,3.5a9.028,9.028,0,0,0,7.822-4.043q2.83-4.043,2.83-11.144,0-7.208-2.83-11.057A9.309,9.309,0,0,0,889.593,566.7Z"/><path class="cls-2" d="M929.01,549.582h14.519q10.232,0,14.8,3.058t4.571,9.668a11.171,11.171,0,0,1-2.549,7.541,12.268,12.268,0,0,1-7.436,3.85v.351q11.707,2,11.707,12.305,0,6.891-4.658,10.758T946.94,600.98H929.01Zm5.976,22.007h9.844q6.328,0,9.106-1.986t2.777-6.7q0-4.324-3.094-6.24t-9.843-1.916h-8.79Zm0,5.063v19.23h10.723q6.223,0,9.369-2.408t3.147-7.541q0-4.781-3.217-7.031t-9.791-2.25Z"/><path class="cls-2" d="M987.461,601.683q-8.543,0-13.482-5.2t-4.94-14.449q0-9.316,4.588-14.8a15.241,15.241,0,0,1,12.322-5.484q7.244,0,11.461,4.763t4.219,12.569v3.691H975.086q.175,6.786,3.428,10.3t9.158,3.515a31.045,31.045,0,0,0,12.3-2.6v5.2a30.889,30.889,0,0,1-5.854,1.916A32.872,32.872,0,0,1,987.461,601.683Zm-1.582-35.051a9.528,9.528,0,0,0-7.4,3.024,13.931,13.931,0,0,0-3.252,8.367h20.144q0-5.52-2.461-8.455A8.661,8.661,0,0,0,985.879,566.632Z"/><path class="cls-2" d="M1020.423,596.867a18.984,18.984,0,0,0,2.988-.229,19.276,19.276,0,0,0,2.285-.474v4.464a10.634,10.634,0,0,1-2.794.756,20.906,20.906,0,0,1-3.323.3q-11.179,0-11.179-11.777V566.984h-5.52v-2.813l5.52-2.425,2.461-8.227h3.375v8.93h11.179v4.535h-11.179V589.66a7.8,7.8,0,0,0,1.652,5.343A5.747,5.747,0,0,0,1020.423,596.867Z"/><path class="cls-2" d="M1042.241,596.867a18.987,18.987,0,0,0,2.989-.229,19.32,19.32,0,0,0,2.285-.474v4.464a10.655,10.655,0,0,1-2.8.756,20.9,20.9,0,0,1-3.322.3q-11.181,0-11.18-11.777V566.984h-5.52v-2.813l5.52-2.425,2.461-8.227h3.375v8.93h11.18v4.535h-11.18V589.66a7.8,7.8,0,0,0,1.652,5.343A5.748,5.748,0,0,0,1042.241,596.867Z"/><path class="cls-2" d="M1067.891,601.683q-8.544,0-13.483-5.2t-4.939-14.449q0-9.316,4.588-14.8a15.239,15.239,0,0,1,12.322-5.484q7.242,0,11.461,4.763t4.219,12.569v3.691h-26.543q.175,6.786,3.428,10.3t9.158,3.515a31.036,31.036,0,0,0,12.3-2.6v5.2a30.857,30.857,0,0,1-5.853,1.916A32.879,32.879,0,0,1,1067.891,601.683Zm-1.582-35.051a9.531,9.531,0,0,0-7.4,3.024,13.944,13.944,0,0,0-3.252,8.367H1075.8q0-5.52-2.461-8.455A8.662,8.662,0,0,0,1066.309,566.632Z"/><path class="cls-2" d="M1105.986,561.746a22.783,22.783,0,0,1,4.606.422l-.809,5.414a19.85,19.85,0,0,0-4.218-.528,10.268,10.268,0,0,0-8,3.8,13.845,13.845,0,0,0-3.323,9.457V600.98h-5.836V562.449h4.817l.668,7.136h.281a16.938,16.938,0,0,1,5.168-5.8A11.628,11.628,0,0,1,1105.986,561.746Z"/><path class="cls-2" d="M1113.356,597.253a5.236,5.236,0,0,1,1.072-3.568,3.891,3.891,0,0,1,3.076-1.213,4.163,4.163,0,0,1,3.182,1.213,5.025,5.025,0,0,1,1.142,3.568,4.928,4.928,0,0,1-1.16,3.516,4.611,4.611,0,0,1-6.135.123A4.814,4.814,0,0,1,1113.356,597.253Z"/><path class="cls-1" d="M1174.745,587.3a12.6,12.6,0,0,1-4.922,10.582q-4.922,3.8-13.359,3.8-9.141,0-14.062-2.355v-5.766a36.942,36.942,0,0,0,6.89,2.109,36.231,36.231,0,0,0,7.383.774q5.976,0,9-2.268a7.439,7.439,0,0,0,3.023-6.31,8.1,8.1,0,0,0-1.072-4.377,9.96,9.96,0,0,0-3.586-3.147,50.188,50.188,0,0,0-7.646-3.269q-7.173-2.566-10.248-6.082a13.429,13.429,0,0,1-3.077-9.176,11.414,11.414,0,0,1,4.465-9.457q4.465-3.516,11.813-3.516a34.811,34.811,0,0,1,14.1,2.813l-1.863,5.2a31.863,31.863,0,0,0-12.375-2.672q-4.746,0-7.418,2.039a6.72,6.72,0,0,0-2.672,5.66,8.663,8.663,0,0,0,.985,4.377,9.257,9.257,0,0,0,3.322,3.129,41.341,41.341,0,0,0,7.154,3.147q8.087,2.882,11.127,6.187A12.167,12.167,0,0,1,1174.745,587.3Z"/><path class="cls-1" d="M1204.473,600.98l-1.16-5.484h-.282a16.2,16.2,0,0,1-5.748,4.9,17.528,17.528,0,0,1-7.154,1.283q-5.73,0-8.982-2.953t-3.252-8.4q0-11.673,18.668-12.235l6.539-.211v-2.39q0-4.536-1.951-6.7t-6.241-2.162a25.436,25.436,0,0,0-10.9,2.953l-1.793-4.464a27.377,27.377,0,0,1,6.24-2.426,27.025,27.025,0,0,1,6.8-.879q6.891,0,10.213,3.059t3.322,9.808v26.3Zm-13.184-4.113q5.449,0,8.561-2.989t3.111-8.367v-3.48l-5.836.246q-6.96.246-10.037,2.162a6.519,6.519,0,0,0-3.076,5.959,6.012,6.012,0,0,0,1.916,4.816A7.949,7.949,0,0,0,1191.289,596.867Z"/><path class="cls-1" d="M1234.588,566.984h-9.809v34h-5.835v-34h-6.891v-2.637l6.891-2.109v-2.145q0-14.2,12.41-14.2a25.521,25.521,0,0,1,7.172,1.231l-1.512,4.675a19.32,19.32,0,0,0-5.766-1.089,5.617,5.617,0,0,0-4.887,2.2q-1.581,2.2-1.582,7.049v2.5h9.809Z"/><path class="cls-1" d="M1254.3,601.683q-8.543,0-13.482-5.2t-4.94-14.449q0-9.316,4.588-14.8a15.241,15.241,0,0,1,12.322-5.484q7.242,0,11.461,4.763t4.219,12.569v3.691h-26.543q.175,6.786,3.428,10.3t9.158,3.515a31.045,31.045,0,0,0,12.305-2.6v5.2a30.889,30.889,0,0,1-5.854,1.916A32.872,32.872,0,0,1,1254.3,601.683Zm-1.582-35.051a9.527,9.527,0,0,0-7.4,3.024,13.931,13.931,0,0,0-3.252,8.367h20.144q0-5.52-2.461-8.455A8.661,8.661,0,0,0,1252.715,566.632Z"/><path class="cls-1" d="M1292.392,561.746a22.773,22.773,0,0,1,4.605.422l-.808,5.414a19.858,19.858,0,0,0-4.219-.528,10.271,10.271,0,0,0-8,3.8,13.844,13.844,0,0,0-3.322,9.457V600.98h-5.836V562.449h4.816l.668,7.136h.281a16.948,16.948,0,0,1,5.168-5.8A11.631,11.631,0,0,1,1292.392,561.746Z"/><path class="cls-1" d="M1299.761,597.253a5.236,5.236,0,0,1,1.072-3.568,3.891,3.891,0,0,1,3.076-1.213,4.162,4.162,0,0,1,3.182,1.213,5.021,5.021,0,0,1,1.143,3.568,4.928,4.928,0,0,1-1.161,3.516,4.61,4.61,0,0,1-6.134.123A4.81,4.81,0,0,1,1299.761,597.253Z"/></svg>